# xmcd
#
# Track frame offsets:
#	150
#	27251
#	85475
#	110339
#	144395
#	170074
#	198564
#	231141
#
# Disc length: 3345 seconds
#
# Revision: 0
# Processed by: cddbd v1.5.2PL0 Copyright (c) Steve Scherf et al.
# Submitted via: audiograbber 1.83.01
#
DISCID=6a0d0f08
DTITLE=Grateful Dead - 92-06-12 Knickerbocker Arena, Albany NY
DYEAR=1900
DGENRE=
TTITLE0=Jack Straw
TTITLE1=Sugaree
TTITLE2=Mexicali Blues
TTITLE3=Maggie's Farm
TTITLE4=Brown Eyed Women
TTITLE5=Black Throated Wind
TTITLE6=New Speedway Boogie
TTITLE7=Promised Land
EXTD=
EXTT0=
EXTT1=
EXTT2=
EXTT3=
EXTT4=
EXTT5=
EXTT6=
EXTT7=
PLAYORDER=
